Video: Xvid 720x320 23.976fps
Audio: Dolby AC3 48000Hz stereo

Complete name :The.Avengers.2012TS.XviD.full
line audio.Mripper
Format : Matroska
Format version : Version 2
File size : 2.23 GiB
Duration : 2h 13mn
Overall bit rate : 2 387 Kbps
Encoded date : UTC 2012-05-21 09:33:38
Writing application : mkvmerge v5.5.0 ('Healer') built on Apr 6 2012 21:43:24
Writing library : libebml v1.2.3 + libmatroska v1.3.0

Video
ID : 1
Format : MPEG-4 Visual
Format profile : Advanced Simple@L5
Format settings, BVOP : Yes
Format settings, QPel : No
Format settings, GMC : No warppoints
Format settings, Matrix : Default (MPEG)
Codec ID : XVID
Codec ID/Hint : XviD
Duration : 2h 13mn
Bit rate : 2 084 Kbps
Width : 720 pixels
Height : 320 pixels
Display aspect ratio : 2.25:1
Frame rate : 23.976 fps
Color space : YUV
Chroma subsampling : 4:2:0
Bit depth : 8 bits
Scan type : Progressive
Compression mode : Lossy
Bits/(Pixel*Frame) : 0.377
Stream size : 1.94 GiB (87%)
Writing library : XviD 64
Default : Yes
Forced : No

Audio
ID : 2
Format : AC-3
Format/Info : Audio Coding 3
Mode extension : CM (complete main)
Format settings, Endianness : Big
Muxing mode : Header stripping
Codec ID : A_AC3
Duration : 2h 13mn
Bit rate mode : Constant
Bit rate : 256 Kbps
Channel(s) : 2 channels
Channel positions : Front: L R
Sampling rate : 48.0 KHz
Bit depth : 16 bits
Compression mode : Lossy
Delay relative to video : 4ms
Stream size : 245 MiB (11%)
Language : English
Default : Yes
Forced : No

video screenshot proof,please seed this release
 
http://img515.imageshack.us/img51/2648/vlcsnap2012052112h09m52.png 
http://img140.imageshack.us/img14/4241/vlcsnap2012052112h09m01.png 
http://img69.imageshack.us/img69/9713/vlcsnap2012052112h06m46.png 
http://img52.imageshack.us/img52/6420/vlcsnap2012052112h07m13.png 
http://img24.imageshack.us/img24/333/vlcsnap2012052112h07m00.png

Enjoy